<svg width="31" height="32" viewBox="0 0 31 32" fill="none" xmlns="http://www.w3.org/2000/svg">
<path d="M15.7924 0.202267L0.928703 5.32317L3.27757 24.3878L15.8082 31.13L28.4035 24.2964L30.7514 5.23257L15.7924 0.202267Z" fill="#B3B3B3"/>
<path d="M29.2688 6.33522L15.7577 1.82462V29.52L27.0806 23.3852L29.2688 6.33522Z" fill="#A6120D"/>
<path d="M2.5967 6.41645L4.6095 23.4667L15.7576 29.52V1.82415L2.5967 6.41645Z" fill="#DD1B16"/>
<path d="M19.4769 16.5732L15.7577 18.2759H11.8378L9.99512 22.788L6.5678 22.85L15.7577 2.83542L19.4769 16.5732ZM19.1174 15.716L15.7825 9.25262L13.0469 15.6048H15.7576L19.1174 15.716Z" fill="#F2F2F2"/>
<path d="M15.7576 2.83519L15.7822 9.25249L18.8861 15.6096H15.7646L15.7576 18.2717L20.074 18.2757L22.0914 22.8506L25.3708 22.91L15.7576 2.83519Z" fill="#B3B3B3"/>
</svg>
