<svg width="35" height="22" viewBox="0 0 35 22" fill="none" xmlns="http://www.w3.org/2000/svg">
<path d="M10.4763 8.0012C10.4763 8.42649 10.5234 8.77132 10.6059 9.02419C10.7002 9.27706 10.8181 9.55293 10.9831 9.85178C11.042 9.94373 11.0656 10.0357 11.0656 10.1161C11.0656 10.2311 10.9949 10.346 10.8417 10.461L10.0991 10.9437C9.99297 11.0127 9.88688 11.0472 9.79258 11.0472C9.67472 11.0472 9.55683 10.9897 9.43896 10.8863C9.27394 10.7138 9.13249 10.5299 9.01462 10.346C8.89674 10.1506 8.77887 9.93224 8.64921 9.66787C7.72979 10.7253 6.57463 11.2541 5.18373 11.2541C4.19359 11.2541 3.40383 10.9782 2.82626 10.4265C2.24868 9.87477 1.95399 9.13913 1.95399 8.21959C1.95399 7.24258 2.30762 6.44948 3.02664 5.85178C3.74567 5.25408 4.70044 4.95523 5.91454 4.95523C6.31531 4.95523 6.72787 4.98971 7.164 5.04718C7.60013 5.10465 8.04805 5.19661 8.51955 5.30005V4.46097C8.51955 3.58741 8.33095 2.97821 7.96554 2.62189C7.58835 2.26557 6.95183 2.09316 6.0442 2.09316C5.63164 2.09316 5.2073 2.13913 4.77117 2.24258C4.33504 2.34603 3.91069 2.47247 3.49813 2.63338C3.30954 2.71385 3.16809 2.75982 3.08558 2.78281C3.00307 2.8058 2.94413 2.81729 2.89698 2.81729C2.73196 2.81729 2.64945 2.70235 2.64945 2.46097V1.89775C2.64945 1.71385 2.67302 1.57591 2.73196 1.49545C2.7909 1.41499 2.89698 1.33453 3.062 1.25412C3.47456 1.04722 3.96963 0.874717 4.54721 0.736816C5.12479 0.587417 5.73774 0.518416 6.38604 0.518416C7.78873 0.518416 8.81423 0.828816 9.47432 1.44948C10.1226 2.07017 10.4527 3.0127 10.4527 4.27706V8.0012H10.4763ZM5.69058 9.74833C6.07956 9.74833 6.48033 9.67936 6.90468 9.54143C7.32902 9.4035 7.70622 9.15063 8.02448 8.8058C8.21308 8.58741 8.35452 8.34603 8.42525 8.07017C8.49598 7.79431 8.54312 7.46097 8.54312 7.07017V6.58741C8.20129 6.50695 7.83589 6.43798 7.45868 6.39201C7.08149 6.34603 6.71608 6.32304 6.35067 6.32304C5.56092 6.32304 4.98334 6.47247 4.59436 6.78281C4.20537 7.09316 4.01678 7.52994 4.01678 8.10465C4.01678 8.64488 4.15822 9.04718 4.45291 9.32304C4.73581 9.6104 5.14836 9.74833 5.69058 9.74833ZM15.1558 10.9897C14.9437 10.9897 14.8022 10.9552 14.7079 10.8748C14.6136 10.8058 14.5311 10.6449 14.4604 10.4265L11.6904 1.54143C11.6196 1.31155 11.5843 1.16212 11.5843 1.08162C11.5843 0.897717 11.6786 0.794316 11.8672 0.794316H13.0223C13.2463 0.794316 13.3995 0.828815 13.482 0.909216C13.5763 0.978216 13.6471 1.13912 13.7178 1.35752L15.6981 8.96672L17.5369 1.35752C17.5958 1.12762 17.6665 0.978216 17.7608 0.909216C17.8551 0.840316 18.0202 0.794316 18.2323 0.794316H19.1753C19.3993 0.794316 19.5525 0.828815 19.6468 0.909216C19.7411 0.978216 19.8236 1.13912 19.8708 1.35752L21.7332 9.05867L23.7724 1.35752C23.8431 1.12762 23.9256 0.978216 24.0081 0.909216C24.1024 0.840316 24.2557 0.794316 24.4678 0.794316H25.5641C25.7527 0.794316 25.8588 0.886216 25.8588 1.08162C25.8588 1.13912 25.847 1.19662 25.8352 1.26552C25.8234 1.33453 25.7998 1.42649 25.7527 1.55293L22.9119 10.438C22.8412 10.6679 22.7587 10.8173 22.6644 10.8863C22.5701 10.9552 22.4168 11.0012 22.2165 11.0012H21.2028C20.9788 11.0012 20.8256 10.9667 20.7313 10.8863C20.637 10.8058 20.5544 10.6564 20.5073 10.4265L18.6803 3.0127L16.865 10.415C16.8061 10.6449 16.7353 10.7943 16.641 10.8748C16.5467 10.9552 16.3817 10.9897 16.1696 10.9897H15.1558ZM30.3026 11.3C29.6896 11.3 29.0767 11.2311 28.4873 11.0932C27.898 10.9552 27.4383 10.8058 27.1318 10.6334C26.9432 10.5299 26.8135 10.415 26.7664 10.3115C26.7192 10.2081 26.6957 10.0932 26.6957 9.98971V9.4035C26.6957 9.16212 26.79 9.04718 26.9668 9.04718C27.0375 9.04718 27.1082 9.05867 27.1789 9.08166C27.2497 9.10465 27.3558 9.15063 27.4736 9.19661C27.8744 9.36902 28.3105 9.50695 28.7702 9.5989C29.2417 9.69086 29.7014 9.73683 30.1729 9.73683C30.9155 9.73683 31.4931 9.6104 31.8939 9.35752C32.2947 9.10465 32.5068 8.73683 32.5068 8.26557C32.5068 7.94373 32.4007 7.67936 32.1886 7.46097C31.9764 7.24258 31.5756 7.04718 30.998 6.86327L29.2889 6.34603C28.4284 6.08166 27.7919 5.69086 27.4029 5.17362C27.0139 4.66787 26.8135 4.10465 26.8135 3.50695C26.8135 3.02419 26.9196 2.5989 27.1318 2.23109C27.344 1.86327 27.6269 1.54143 27.9805 1.28852C28.3341 1.02422 28.7349 0.828816 29.2064 0.690817C29.6779 0.552917 30.1729 0.495417 30.6916 0.495417C30.9509 0.495417 31.222 0.506916 31.4813 0.541416C31.7524 0.575916 32 0.621916 32.2475 0.667816C32.4833 0.725316 32.7072 0.782816 32.9194 0.851816C33.1316 0.920716 33.2966 0.989717 33.4145 1.05872C33.5795 1.15062 33.6973 1.24262 33.7681 1.34603C33.8388 1.43798 33.8742 1.56442 33.8742 1.72534V2.26557C33.8742 2.50695 33.7799 2.63338 33.603 2.63338C33.5087 2.63338 33.3555 2.58741 33.1551 2.49545C32.4832 2.1966 31.7289 2.04718 30.892 2.04718C30.2201 2.04718 29.6896 2.15063 29.3242 2.36902C28.9588 2.58741 28.7702 2.92074 28.7702 3.39201C28.7702 3.71385 28.8881 3.98971 29.1239 4.2081C29.3596 4.42649 29.7957 4.64488 30.4205 4.84028L32.0943 5.35752C32.943 5.62189 33.5559 5.98971 33.9213 6.46097C34.2867 6.93224 34.4635 7.47247 34.4635 8.07017C34.4635 8.56442 34.3574 9.0127 34.1571 9.4035C33.9449 9.79431 33.662 10.1391 33.2966 10.415C32.9312 10.7023 32.495 10.9092 31.9882 11.0587C31.4578 11.2196 30.9037 11.3 30.3026 11.3Z" fill="white"/>
<path fill-rule="evenodd" clip-rule="evenodd" d="M32.5308 16.8867C28.6528 19.6798 23.0184 21.1626 18.1738 21.1626C11.3843 21.1626 5.26665 18.7143 0.646008 14.6454C0.2806 14.3235 0.610646 13.8867 1.04678 14.1396C6.04462 16.9672 12.2094 18.6798 18.5864 18.6798C22.8888 18.6798 27.6155 17.8063 31.965 16.0132C32.6133 15.7258 33.1673 16.427 32.5308 16.8867Z" fill="#FF9900"/>
</svg>
