<svg width="25" height="28" viewBox="0 0 25 28" fill="none" xmlns="http://www.w3.org/2000/svg">
<path d="M2.4604 25.0844L0.279007 0.265123H24.2743L22.0929 25.0844L12.25 27.89" fill="#0C73B8"/>
<path d="M12.303 25.73L20.2305 23.5178L22.0926 2.25958H12.303" fill="#30A9DC"/>
<path d="M12.3031 11.4853H5.28005L5.54607 14.5607H12.3031V11.4853ZM12.3031 5.33436H4.748L5.01402 8.35586H12.3031V5.33436ZM12.3031 19.4166L5.70568 17.6361L6.07812 20.8734L12.3031 22.6V19.4166Z" fill="#ECEDEE"/>
<path d="M12.303 14.5607H15.9741L15.6017 18.4994L12.303 19.4166V22.6L18.4215 20.8734L19.8048 5.33436H12.303V8.35586H16.5594L16.2401 11.4853H12.303V14.5607Z" fill="white"/>
</svg>
