<svg width="29" height="28" viewBox="0 0 29 28" fill="none" xmlns="http://www.w3.org/2000/svg">
<mask id="mask0_1_110" style="mask-type:alpha" maskUnits="userSpaceOnUse" x="0" y="0" width="29" height="28">
<path d="M0.666656 0.0555286H28.2222V27.6111H0.666656V0.0555286Z" fill="black"/>
</mask>
<g mask="url(#mask0_1_110)">
<path d="M27.7029 12.6085L15.6719 0.578171C14.9794 -0.114729 13.8557 -0.114729 13.1624 0.578171L10.6641 3.07647L13.8333 6.24567C14.5697 5.99677 15.4143 6.16377 16.0013 6.75077C16.5912 7.34167 16.757 8.19337 16.5021 8.93217L19.5563 11.9866C20.2953 11.732 21.1479 11.8967 21.7381 12.4879C22.5629 13.3124 22.5629 14.6487 21.7381 15.4738C20.913 16.2989 19.5767 16.2989 18.7512 15.4738C18.1308 14.8527 17.9775 13.9415 18.2916 13.1772L15.4432 10.3288L15.4429 17.8245C15.6494 17.9266 15.838 18.0614 16.0013 18.2238C16.8262 19.0483 16.8262 20.3848 16.0013 21.2105C15.1763 22.0352 13.8393 22.0352 13.0154 21.2105C12.1906 20.3848 12.1906 19.0484 13.0154 18.2239C13.2131 18.0262 13.448 17.8696 13.7066 17.7631V10.1976C13.4476 10.0919 13.2126 9.93517 13.0154 9.73677C12.3905 9.11267 12.2402 8.19577 12.5605 7.42837L9.43633 4.30397L1.18689 12.5529C0.493693 13.2464 0.493693 14.3703 1.18689 15.0632L13.2181 27.0938C13.9108 27.7868 15.0343 27.7868 15.7278 27.0938L27.7028 15.1191C28.3957 14.4259 28.3959 13.3014 27.7029 12.6085Z" fill="#DE4C36"/>
</g>
</svg>
