<svg width="25" height="28" viewBox="0 0 25 28" fill="none" xmlns="http://www.w3.org/2000/svg">
<path d="M2.20159 25.0844L0.0202026 0.265127H24.0155L21.8341 25.0844L11.9912 27.89" fill="#E34F26"/>
<path d="M12.0444 25.73L19.9719 23.5178L21.8341 2.25958H12.0444" fill="#EF652A"/>
<path d="M12.0445 11.4853H8.05411L7.78809 8.35586H12.0445V5.33436H4.4894L5.28747 14.5607H12.0445V11.4853ZM12.0445 19.4166L8.63936 18.4994L8.42654 16.0714H5.44709L5.81952 20.8734L12.0445 22.6V19.4166Z" fill="#ECEDEE"/>
<path d="M12.0444 14.5607H15.7155L15.3431 18.4994L12.0444 19.4166V22.6L18.1629 20.8734L19.0142 11.4853H12.0444V14.5607ZM12.0444 5.33436V8.35586H19.2802L19.5463 5.33436H12.0444Z" fill="white"/>
</svg>
