<svg width="31" height="31" viewBox="0 0 31 31" fill="none" xmlns="http://www.w3.org/2000/svg">
<mask id="mask0_1_134" style="mask-type:alpha" maskUnits="userSpaceOnUse" x="0" y="0" width="31" height="31">
<path d="M0.456512 0.12323H30.5171V30.1838H0.456512V0.12323Z" fill="black"/>
</mask>
<g mask="url(#mask0_1_134)">
<path d="M11.3745 23.3674C11.3745 23.3674 10.219 24.07 12.1777 24.2711C14.5355 24.5717 15.7915 24.5219 18.4012 24.0202C18.9256 24.3414 19.4803 24.6104 20.0573 24.8234C14.1861 27.3335 6.75645 24.6731 11.3745 23.3674ZM10.623 20.1049C10.623 20.1049 9.36796 21.0584 11.3257 21.2603C13.8855 21.5111 15.893 21.5609 19.3575 20.8592C19.6944 21.2009 20.1069 21.4587 20.5618 21.6116C13.4844 23.7196 5.55402 21.8117 10.623 20.1049ZM24.4762 25.8258C24.4762 25.8258 25.3292 26.5284 23.5227 27.0808C20.1597 28.0859 9.41869 28.3865 6.40699 27.0808C5.35299 26.6299 7.36048 25.977 8.00396 25.8765C8.65684 25.7262 9.00911 25.7262 9.00911 25.7262C7.85366 24.923 1.32957 27.3823 5.69681 28.0841C17.6929 30.0418 27.5809 27.2311 24.4687 25.8258H24.4762ZM11.9175 16.6911C11.9175 16.6911 6.44645 17.9969 9.95978 18.4478C11.4656 18.6488 14.4266 18.5981 17.1875 18.398C19.4458 18.197 21.7059 17.7968 21.7059 17.7968C21.7059 17.7968 20.9028 18.1481 20.3504 18.4995C14.7798 19.9555 4.08763 19.3026 7.15005 17.7968C9.75969 16.5418 11.9184 16.693 11.9184 16.693L11.9175 16.6911ZM21.7059 22.1621C27.3273 19.25 24.7176 16.4413 22.9102 16.7916C22.4593 16.8922 22.2574 16.9927 22.2574 16.9927C22.2574 16.9927 22.4077 16.6921 22.759 16.5916C26.3231 15.3365 29.1337 20.3557 21.6035 22.3124C21.6035 22.3124 21.6533 22.2626 21.7041 22.1621H21.7059ZM12.4717 30.0925C17.892 30.4438 26.1746 29.8914 26.3747 27.3307C26.3747 27.3307 25.9736 28.3358 21.9079 29.0873C17.2899 29.9403 11.568 29.8388 8.20499 29.2884C8.20499 29.2884 8.90766 29.8905 12.4717 30.0925Z" fill="#4E7896"/>
<path d="M18.3014 0.12236C18.3014 0.12236 21.4136 3.28436 15.3404 8.0527C10.4715 11.9174 14.2366 14.1259 15.3404 16.6359C12.479 14.0761 10.4217 11.8169 11.8271 9.70979C13.8844 6.59666 19.5564 5.10016 18.3014 0.12236ZM16.7044 14.5279C18.1605 16.1841 16.3033 17.6899 16.3033 17.6899C16.3033 17.6899 20.0177 15.783 18.3108 13.4232C16.7551 11.1649 15.549 10.0602 22.0749 6.29606C22.0749 6.29606 11.7857 8.85588 16.7044 14.5279Z" fill="#F58219"/>
</g>
</svg>
