<svg xmlns="http://www.w3.org/2000/svg" xmlns:xlink="http://www.w3.org/1999/xlink" viewBox="0 0 340.16 364.75"><defs><style>.cls-1{isolation:isolate;}.cls-2{fill:#00a1d2;}.cls-3{fill:url(#Degradado_sin_nombre_5);}.cls-4{fill:url(#Degradado_sin_nombre_2);}.cls-5{fill:url(#Degradado_sin_nombre_384);}.cls-6{fill:url(#Degradado_sin_nombre_59);}.cls-7{fill:url(#Degradado_sin_nombre_384-2);}.cls-8{fill:url(#Degradado_sin_nombre_62);}.cls-9{fill:url(#Degradado_sin_nombre_384-3);}.cls-10{fill:url(#Degradado_sin_nombre_69);}.cls-11{fill:#024a69;}.cls-12{fill:#ee7219;}.cls-13,.cls-14,.cls-15{opacity:0.8;}.cls-13,.cls-14,.cls-15,.cls-18{mix-blend-mode:color-dodge;}.cls-13{fill:url(#Degradado_sin_nombre_479);}.cls-14{fill:url(#Degradado_sin_nombre_479-2);}.cls-15{fill:url(#Degradado_sin_nombre_479-3);}.cls-16{fill:url(#Degradado_sin_nombre_18);}.cls-17{fill:url(#Degradado_sin_nombre_92);}.cls-18{opacity:0.55;fill:url(#Degradado_sin_nombre_26);}</style><linearGradient id="Degradado_sin_nombre_5" x1="129.15" y1="52.7" x2="188" y2="74.12" gradientUnits="userSpaceOnUse"><stop offset="0.13" stop-color="#706f6f"/><stop offset="0.25" stop-color="#757474"/><stop offset="0.4" stop-color="#858484"/><stop offset="0.56" stop-color="#9f9e9e"/><stop offset="0.73" stop-color="#c2c2c2"/><stop offset="0.83" stop-color="#dadada"/></linearGradient><linearGradient id="Degradado_sin_nombre_2" x1="217.94" y1="86.16" x2="278.45" y2="108.18" xlink:href="#Degradado_sin_nombre_5"/><linearGradient id="Degradado_sin_nombre_384" x1="75.25" y1="265.96" x2="75.25" y2="8.24" gradientUnits="userSpaceOnUse"><stop offset="0.03" stop-color="#3babd5"/><stop offset="0.22" stop-color="#3189b0"/><stop offset="0.46" stop-color="#256084"/><stop offset="0.67" stop-color="#2184a7"/><stop offset="0.88" stop-color="#1ea2c3"/><stop offset="1" stop-color="#1dadce"/></linearGradient><linearGradient id="Degradado_sin_nombre_59" x1="75.25" y1="246.42" x2="75.25" y2="36.49" gradientUnits="userSpaceOnUse"><stop offset="0.02" stop-color="#013f59"/><stop offset="0.56" stop-color="#41c0f0"/><stop offset="0.66" stop-color="#2f9ec9"/><stop offset="0.85" stop-color="#0f6284"/><stop offset="0.94" stop-color="#024b69"/></linearGradient><linearGradient id="Degradado_sin_nombre_384-2" x1="176.63" y1="263.02" x2="176.63" y2="48.25" xlink:href="#Degradado_sin_nombre_384"/><linearGradient id="Degradado_sin_nombre_62" x1="176.63" y1="246.74" x2="176.63" y2="71.79" gradientUnits="userSpaceOnUse"><stop offset="0.02" stop-color="#013f59"/><stop offset="0.56" stop-color="#41c0f0"/><stop offset="0.73" stop-color="#278fb8"/><stop offset="0.97" stop-color="#024b69"/></linearGradient><linearGradient id="Degradado_sin_nombre_384-3" x1="277.99" y1="260.08" x2="277.99" y2="88.27" xlink:href="#Degradado_sin_nombre_384"/><linearGradient id="Degradado_sin_nombre_69" x1="277.99" y1="247.05" x2="277.99" y2="107.1" gradientUnits="userSpaceOnUse"><stop offset="0.03" stop-color="#013f59"/><stop offset="0.1" stop-color="#09506d"/><stop offset="0.56" stop-color="#41c0f0"/><stop offset="0.7" stop-color="#2c98c2"/><stop offset="0.97" stop-color="#024b69"/></linearGradient><radialGradient id="Degradado_sin_nombre_479" cx="-109.04" cy="444.51" r="16.43" gradientTransform="matrix(0.01, 1.07, -1.9, 0.01, 1141.42, 356.21)" gradientUnits="userSpaceOnUse"><stop offset="0" stop-color="#fff"/><stop offset="0.11" stop-color="#fbfbfb" stop-opacity="0.79"/><stop offset="0.24" stop-color="#f7f7f7" stop-opacity="0.58"/><stop offset="0.37" stop-color="#f4f4f4" stop-opacity="0.4"/><stop offset="0.5" stop-color="#f2f2f2" stop-opacity="0.26"/><stop offset="0.63" stop-color="#f0f0f0" stop-opacity="0.14"/><stop offset="0.75" stop-color="#eee" stop-opacity="0.06"/><stop offset="0.88" stop-color="#ededed" stop-opacity="0.02"/><stop offset="1" stop-color="#ededed" stop-opacity="0"/></radialGradient><radialGradient id="Degradado_sin_nombre_479-2" cx="-14.49" cy="435.92" r="12.34" gradientTransform="matrix(0.01, 1.07, -1.9, 0.01, 1224.25, 275.75)" xlink:href="#Degradado_sin_nombre_479"/><radialGradient id="Degradado_sin_nombre_479-3" cx="80.4" cy="426.9" r="11.05" gradientTransform="matrix(0.01, 1.07, -1.9, 0.01, 1306.9, 194.3)" xlink:href="#Degradado_sin_nombre_479"/><radialGradient id="Degradado_sin_nombre_18" cx="512.39" cy="193.19" fx="527.0767067486277" r="66.71" gradientTransform="translate(-466.74 -292.9) scale(1.59 1.58)" gradientUnits="userSpaceOnUse"><stop offset="0.33" stop-color="#e23b16"/><stop offset="0.4" stop-color="#e34018"/><stop offset="0.48" stop-color="#e54f1f"/><stop offset="0.57" stop-color="#e96829"/><stop offset="0.67" stop-color="#ee8a38"/><stop offset="0.77" stop-color="#f5b64b"/><stop offset="0.88" stop-color="#feeb62"/><stop offset="0.89" stop-color="#fff265"/></radialGradient><radialGradient id="Degradado_sin_nombre_92" cx="483.67" cy="208.18" fx="460.652368998107" r="28.31" gradientTransform="translate(-466.74 -292.9) scale(1.59 1.58)" gradientUnits="userSpaceOnUse"><stop offset="0.21" stop-color="#fee164"/><stop offset="0.3" stop-color="#fcd25d"/><stop offset="0.46" stop-color="#f5ac4b"/><stop offset="0.69" stop-color="#eb6f2e"/><stop offset="0.87" stop-color="#e23b16"/></radialGradient><radialGradient id="Degradado_sin_nombre_26" cx="114.18" cy="305.98" r="18.3" gradientTransform="matrix(1.06, 0.01, -0.01, 1.9, 411.26, -417.21)" gradientUnits="userSpaceOnUse"><stop offset="0.08" stop-color="#fff"/><stop offset="0.19" stop-color="#fbfbfb" stop-opacity="0.79"/><stop offset="0.3" stop-color="#f7f7f7" stop-opacity="0.58"/><stop offset="0.42" stop-color="#f4f4f4" stop-opacity="0.4"/><stop offset="0.54" stop-color="#f2f2f2" stop-opacity="0.26"/><stop offset="0.66" stop-color="#f0f0f0" stop-opacity="0.14"/><stop offset="0.77" stop-color="#eee" stop-opacity="0.06"/><stop offset="0.89" stop-color="#ededed" stop-opacity="0.02"/><stop offset="1" stop-color="#ededed" stop-opacity="0"/></radialGradient></defs><title>movier instalaciones logo</title><g class="cls-1"><g id="Capa_3" data-name="Capa 3"><path class="cls-2" d="M350.25,460.57a1.5,1.5,0,0,1,0-2.2,1.59,1.59,0,0,1,1.11-.48,1.62,1.62,0,0,1,1.12.48,1.57,1.57,0,0,1,0,2.2,1.59,1.59,0,0,1-1.12.45A1.57,1.57,0,0,1,350.25,460.57Zm-.48,17.87V465.72a1.58,1.58,0,0,1,3.16,0v12.72a1.58,1.58,0,0,1-3.16,0Z" transform="translate(-250.87 -115.26)"/><path class="cls-2" d="M372,472.06v6.34a1.58,1.58,0,1,1-3.16,0v-6.34a4.85,4.85,0,0,0-9.69,0v6.34a1.58,1.58,0,1,1-3.15,0v-6.34a8,8,0,0,1,16,0Z" transform="translate(-250.87 -115.26)"/><path class="cls-2" d="M386.52,475.28c0,.91-.67,4.73-5.32,4.73-2.23,0-4.85-1-5.71-3.18a1.09,1.09,0,0,1-.06-.45,1.63,1.63,0,0,1,1.62-1.54,1.57,1.57,0,0,1,1.22.6,3.25,3.25,0,0,0,2.86,1.48c2,0,2.2-1.39,2.24-1.64,0-1.07-1.12-1.52-2.65-1.67-1.94-.22-5.29-1.27-5.29-4.74,0-3,2.58-4.82,5.39-4.82a7,7,0,0,1,3.06.72c.31.16,2.64,1.2,2.64,3.12a1.67,1.67,0,0,1-1.62,1.52c-.77,0-1.09-.51-1.47-1.07-.45-.89-1.79-1.17-2.68-1.17-1.18,0-2.2.66-2.2,1.73,0,2.28,3.44.79,6.09,2.81A4.78,4.78,0,0,1,386.52,475.28Z" transform="translate(-250.87 -115.26)"/><path class="cls-2" d="M400.07,465.72a1.59,1.59,0,0,1-1.6,1.58h-2.26v11.14a1.58,1.58,0,0,1-3.15,0V467.3h-2.3a1.59,1.59,0,0,1-1.56-1.58,1.56,1.56,0,0,1,1.56-1.55h2.3v-6.31a1.58,1.58,0,0,1,3.15,0v6.31h2.26A1.57,1.57,0,0,1,400.07,465.72Z" transform="translate(-250.87 -115.26)"/><path class="cls-2" d="M417.09,472.19v6.18A1.53,1.53,0,0,1,415.5,480a1.67,1.67,0,0,1-1.53-1.58,7,7,0,0,1-4.72,1.58,7.79,7.79,0,0,1-8.07-7.76,8,8,0,0,1,8.07-8A7.79,7.79,0,0,1,417.09,472.19Zm-3.12,0a4.79,4.79,0,0,0-4.72-4.89,5,5,0,0,0-4.94,4.89,4.8,4.8,0,0,0,4.94,4.67A4.61,4.61,0,0,0,414,472.19Z" transform="translate(-250.87 -115.26)"/><path class="cls-2" d="M420.21,478.44V457.89a1.57,1.57,0,0,1,1.6-1.54,1.55,1.55,0,0,1,1.56,1.54v20.55a1.58,1.58,0,0,1-3.16,0Z" transform="translate(-250.87 -115.26)"/><path class="cls-2" d="M442.49,472.19v6.18A1.53,1.53,0,0,1,440.9,480a1.67,1.67,0,0,1-1.53-1.58,7,7,0,0,1-4.72,1.58,7.79,7.79,0,0,1-8.06-7.76,8,8,0,0,1,8.06-8A7.79,7.79,0,0,1,442.49,472.19Zm-3.12,0a4.79,4.79,0,0,0-4.72-4.89,5,5,0,0,0-4.94,4.89,4.8,4.8,0,0,0,4.94,4.67A4.61,4.61,0,0,0,439.37,472.19Z" transform="translate(-250.87 -115.26)"/><path class="cls-2" d="M445.68,472.09a7.94,7.94,0,0,1,8-7.92,8.07,8.07,0,0,1,7,3.95,1.57,1.57,0,0,1-.57,2.14,1.64,1.64,0,0,1-2.17-.57,4.81,4.81,0,1,0-.13,5,1.62,1.62,0,0,1,2.2-.47,1.56,1.56,0,0,1,.45,2.17,8,8,0,0,1-14.7-4.29Z" transform="translate(-250.87 -115.26)"/><path class="cls-2" d="M464.52,460.57a1.5,1.5,0,0,1,0-2.2,1.54,1.54,0,0,1,2.23,0,1.57,1.57,0,0,1,0,2.2,1.61,1.61,0,0,1-2.23,0ZM464,478.44V465.72a1.58,1.58,0,0,1,3.16,0v12.72a1.58,1.58,0,0,1-3.16,0Z" transform="translate(-250.87 -115.26)"/><path class="cls-2" d="M470.29,472.06a8,8,0,1,1,8,7.92A8,8,0,0,1,470.29,472.06Zm3.15,0a4.85,4.85,0,1,0,4.85-4.8A4.84,4.84,0,0,0,473.44,472.06Z" transform="translate(-250.87 -115.26)"/><path class="cls-2" d="M505.45,472.06v6.34a1.58,1.58,0,1,1-3.16,0v-6.34a4.85,4.85,0,0,0-9.69,0v6.34a1.58,1.58,0,1,1-3.15,0v-6.34a8,8,0,0,1,16,0Z" transform="translate(-250.87 -115.26)"/><path class="cls-2" d="M524.6,472.06a1.57,1.57,0,0,1-1.59,1.55H512a4.87,4.87,0,0,0,4.59,3.25,6.35,6.35,0,0,0,3.57-1,1.53,1.53,0,0,1,2.11.72,1.64,1.64,0,0,1-.77,2.08A7.86,7.86,0,0,1,516.6,480a7.92,7.92,0,1,1,0-15.84A7.81,7.81,0,0,1,524.6,472.06ZM512,470.48h9.22a4.66,4.66,0,0,0-4.63-3.22A4.88,4.88,0,0,0,512,470.48Z" transform="translate(-250.87 -115.26)"/><path class="cls-2" d="M538.88,475.28c0,.91-.67,4.73-5.32,4.73-2.23,0-4.84-1-5.7-3.18a1,1,0,0,1-.07-.45,1.64,1.64,0,0,1,1.63-1.54,1.57,1.57,0,0,1,1.21.6,3.27,3.27,0,0,0,2.87,1.48c2,0,2.2-1.39,2.23-1.64,0-1.07-1.12-1.52-2.65-1.67-1.94-.22-5.29-1.27-5.29-4.74,0-3,2.58-4.82,5.39-4.82a7,7,0,0,1,3.06.72c.32.16,2.64,1.2,2.64,3.12a1.67,1.67,0,0,1-1.62,1.52c-.77,0-1.09-.51-1.47-1.07-.44-.89-1.78-1.17-2.68-1.17-1.17,0-2.2.66-2.2,1.73,0,2.28,3.45.79,6.09,2.81A4.78,4.78,0,0,1,538.88,475.28Z" transform="translate(-250.87 -115.26)"/><polygon class="cls-3" points="173.33 70.36 165.46 91.79 142.62 56.06 128.94 34.6 150.51 34.6 173.33 70.36"/><polygon class="cls-4" points="268.15 105.99 260.26 127.45 237.44 91.72 223.74 70.23 245.33 70.23 268.15 105.99"/><polygon class="cls-5" points="71.95 248.31 0 248.31 78.56 34.61 150.5 34.61 71.95 248.31"/><polygon class="cls-6" points="2.72 246.43 70.61 246.43 147.79 36.49 79.89 36.49 2.72 246.43"/><polygon class="cls-7" points="179.87 248.31 107.92 248.31 173.39 70.22 245.33 70.22 179.87 248.31"/><polygon class="cls-8" points="110.19 246.74 178.76 246.74 243.07 71.8 174.5 71.8 110.19 246.74"/><polygon class="cls-9" points="287.79 248.31 215.83 248.31 268.2 105.84 340.16 105.84 287.79 248.31"/><polygon class="cls-10" points="217.65 247.05 286.89 247.05 338.35 107.1 269.09 107.1 217.65 247.05"/><path class="cls-11" d="M318.14,417.24a.88.88,0,0,1,.09.47v23a4.76,4.76,0,0,1-4.77,4.73,4.68,4.68,0,0,1-4.68-4.73V416.86a9.75,9.75,0,0,0-19.49,0V440.7a4.69,4.69,0,0,1-4.69,4.73,4.76,4.76,0,0,1-4.77-4.73V416.86a9.7,9.7,0,0,0-19.4,0V440.7a4.73,4.73,0,1,1-9.46,0V416.86a19.2,19.2,0,0,1,33.63-12.39,19.2,19.2,0,0,1,33.63,12.39C318.23,417.05,318.23,417.14,318.14,417.24Z" transform="translate(-250.87 -115.26)"/><path class="cls-11" d="M328.38,421.5a24,24,0,1,1,24,23.74A23.88,23.88,0,0,1,328.38,421.5Zm9.46,0a14.52,14.52,0,1,0,14.52-14.38A14.49,14.49,0,0,0,337.84,421.5Z" transform="translate(-250.87 -115.26)"/><path class="cls-11" d="M420.78,404.28l-14.34,37.84a4.91,4.91,0,0,1-4.48,3.12h-.1a4.86,4.86,0,0,1-4.49-3.12L383,404.28a4.6,4.6,0,0,1,2.77-6.06,4.71,4.71,0,0,1,6.11,2.75l10,26.39L411.89,401a4.72,4.72,0,0,1,6.12-2.75A4.62,4.62,0,0,1,420.78,404.28Z" transform="translate(-250.87 -115.26)"/><path class="cls-12" d="M433.2,387.06a4.55,4.55,0,0,1,0-6.62,4.65,4.65,0,0,1,6.69,0,4.76,4.76,0,0,1,0,6.62,4.9,4.9,0,0,1-6.69,0Z" transform="translate(-250.87 -115.26)"/><path class="cls-11" d="M431.77,440.61V402.48a4.73,4.73,0,0,1,9.46,0v38.13a4.73,4.73,0,1,1-9.46,0Z" transform="translate(-250.87 -115.26)"/><path class="cls-11" d="M499.71,421.5a4.69,4.69,0,0,1-4.78,4.63H462a14.53,14.53,0,0,0,13.75,9.74,18.93,18.93,0,0,0,10.71-3.12c2.19-1.42,5.15-.09,6.3,2.18s-.09,4.82-2.29,6.24c-6.31,4.17-11.18,4.07-14.72,4.07a23.75,23.75,0,1,1,0-47.49C487.29,397.75,499.71,406.08,499.71,421.5ZM462,416.76h27.61c-2-6.62-8.12-9.64-13.86-9.64A14.58,14.58,0,0,0,462,416.76Z" transform="translate(-250.87 -115.26)"/><path class="cls-11" d="M539,402.48a4.77,4.77,0,0,1-4.77,4.73,14.45,14.45,0,0,0-14.53,14.38v19a4.73,4.73,0,1,1-9.46,0v-19a23.89,23.89,0,0,1,24-23.75A4.69,4.69,0,0,1,539,402.48Z" transform="translate(-250.87 -115.26)"/><ellipse class="cls-13" cx="296.38" cy="242.65" rx="40.35" ry="22.64" transform="matrix(0.36, -0.93, 0.93, 0.36, -287.73, 316.24)"/><ellipse class="cls-14" cx="396.49" cy="262.85" rx="30.3" ry="17" transform="translate(-242.58 422.52) rotate(-68.85)"/><ellipse class="cls-15" cx="497.24" cy="282.42" rx="27.13" ry="15.22" transform="translate(-196.44 528.99) rotate(-68.85)"/><ellipse class="cls-16" cx="304.13" cy="35.62" rx="35.97" ry="35.62"/><ellipse class="cls-17" cx="304.13" cy="35.62" rx="34.85" ry="34.51"/><ellipse class="cls-18" cx="530.46" cy="165.97" rx="25.18" ry="44.99" transform="translate(-261.52 177.73) rotate(-30.58)"/><path class="cls-11" d="M539,440.58a4.7,4.7,0,1,1-4.69-4.65A4.68,4.68,0,0,1,539,440.58Zm-8.62,0a3.92,3.92,0,1,0,3.93-3.88A3.92,3.92,0,0,0,530.36,440.58Z" transform="translate(-250.87 -115.26)"/><path class="cls-11" d="M534.92,440.92l1.07,1.73a.38.38,0,0,1-.13.52.36.36,0,0,1-.2.06.4.4,0,0,1-.33-.19L534.06,441h-.78v1.87a.37.37,0,0,1-.38.38.37.37,0,0,1-.38-.38v-4.52a.38.38,0,0,1,.39-.38h1.62a1.55,1.55,0,0,1,1.52,1.5A1.59,1.59,0,0,1,534.92,440.92Zm.37-1.47a.78.78,0,0,0-.79-.75h-1.22v1.53h1.22A.79.79,0,0,0,535.29,439.45Z" transform="translate(-250.87 -115.26)"/></g></g></svg>