<svg width="27" height="30" viewBox="0 0 27 30" fill="none" xmlns="http://www.w3.org/2000/svg">
<mask id="mask0_1_162" style="mask-type:alpha" maskUnits="userSpaceOnUse" x="0" y="0" width="27" height="30">
<path d="M0.333313 0.0557175H26.1666V29.3335H0.333313V0.0557175Z" fill="black"/>
</mask>
<g mask="url(#mask0_1_162)">
<path d="M12.0874 0.430489C12.7898 0.0167885 13.7046 0.0148888 14.4064 0.430489C17.937 2.48349 21.4688 4.53319 24.9988 6.58749C25.6627 6.97229 26.1069 7.73269 26.1001 8.51999V20.8715C26.105 21.6913 25.617 22.4699 24.9166 22.8461C21.3975 24.8877 17.8803 26.9319 14.3619 28.9735C13.645 29.3954 12.7118 29.3629 12.0172 28.9065C10.9622 28.2771 9.90543 27.6508 8.85033 27.0221C8.63473 26.8898 8.39169 26.7845 8.23945 26.5694C8.37403 26.3828 8.61465 26.3595 8.81018 26.278C9.25056 26.1339 9.65502 25.9026 10.0596 25.6781C10.1619 25.6061 10.2868 25.6337 10.3849 25.6981C11.287 26.2304 12.1812 26.7782 13.0864 27.3054C13.2795 27.4201 13.475 27.2678 13.6401 27.1731C17.0933 25.1647 20.5508 23.1639 24.0034 21.1548C24.1313 21.0915 24.2021 20.9517 24.1917 20.8075C24.1941 16.733 24.1923 12.6578 24.1929 8.58329C24.2075 8.41969 24.1155 8.26929 23.9717 8.20229C20.4649 6.16999 16.9599 4.13459 13.4537 2.10169C13.393 2.05879 13.321 2.03569 13.2473 2.03559C13.1736 2.03549 13.1015 2.05829 13.0407 2.10109C9.53446 4.13459 6.03007 6.17189 2.52386 8.20409C2.3806 8.27109 2.28445 8.41909 2.3015 8.58329C2.3021 12.6578 2.3015 16.733 2.3015 20.8081C2.29542 20.8785 2.31044 20.9491 2.34453 21.0104C2.37862 21.0717 2.43015 21.1208 2.49218 21.1511C3.42783 21.6971 4.36469 22.2392 5.30094 22.7834C5.82839 23.0755 6.476 23.2491 7.05712 23.0253C7.56994 22.836 7.92941 22.2975 7.91963 21.7371C7.92447 17.6864 7.9172 13.6351 7.92326 9.58499C7.91045 9.40519 8.07621 9.25659 8.2461 9.27349C8.69567 9.27039 9.14584 9.26729 9.5954 9.27479C9.78305 9.27039 9.91219 9.46399 9.88899 9.64519C9.88717 13.7216 9.89383 17.798 9.88596 21.8744C9.88717 22.9608 9.45345 24.1429 8.47694 24.6745C7.27393 25.3158 5.78703 25.1798 4.59855 24.5648C3.56968 24.0364 2.58782 23.4127 1.57722 22.8466C0.874927 22.4725 0.389346 21.6908 0.39429 20.8716V8.51999C0.386925 7.71639 0.848696 6.94219 1.53333 6.56299C5.05174 4.51959 8.56955 2.47479 12.0874 0.430489Z" fill="#8CC84B"/>
<path d="M15.1568 8.97999C16.6913 8.87829 18.3341 8.91969 19.715 9.69769C20.7841 10.2938 21.3768 11.545 21.3957 12.7673C21.3658 12.9321 21.1984 13.0231 21.0454 13.0118C20.6002 13.0111 20.1549 13.018 19.7096 13.0087C19.5208 13.0161 19.411 12.8369 19.3873 12.6651C19.2594 12.0803 18.9494 11.5011 18.4145 11.219C17.5934 10.7959 16.6413 10.8172 15.7459 10.826C15.0922 10.8617 14.3893 10.92 13.8356 11.3155C13.4104 11.6152 13.2813 12.22 13.433 12.7072C13.5761 13.0569 13.9684 13.1698 14.2895 13.2738C16.1388 13.7715 18.0984 13.722 19.9124 14.377C20.6635 14.6441 21.3981 15.1632 21.6552 15.9724C21.9915 17.0569 21.8441 18.3532 21.0942 19.2238C20.4862 19.9403 19.6006 20.3303 18.7173 20.5421C17.5422 20.8117 16.3228 20.8186 15.1295 20.6988C14.0074 20.5672 12.8397 20.2638 11.9734 19.4771C11.2327 18.8152 10.8709 17.7839 10.9068 16.7886C10.9154 16.6205 11.078 16.5033 11.2345 16.5171C11.6829 16.5134 12.1312 16.5121 12.5796 16.5177C12.7587 16.5045 12.8914 16.6638 12.9006 16.8375C12.9833 17.3947 13.1868 17.9795 13.659 18.3099C14.5702 18.9149 15.7136 18.8734 16.757 18.8904C17.6214 18.8509 18.5918 18.839 19.2972 18.251C19.6694 17.9157 19.7797 17.3546 19.6791 16.872C19.5701 16.4645 19.1559 16.2746 18.8001 16.1504C16.9745 15.5561 14.993 15.7718 13.185 15.0997C12.4511 14.8328 11.7413 14.3281 11.4593 13.5522C11.0658 12.4539 11.2461 11.0955 12.0745 10.2543C12.8823 9.41749 14.0482 9.09529 15.1568 8.97999Z" fill="#8CC84B"/>
</g>
</svg>
