<svg width="33" height="31" viewBox="0 0 33 31" fill="none" xmlns="http://www.w3.org/2000/svg">
<path d="M32.7782 15.6675C32.7782 13.4648 30.0636 11.3773 25.9016 10.0827C26.8621 5.77209 26.4352 2.34259 24.5543 1.24459C24.1208 0.987089 23.6139 0.865089 23.0603 0.865089V2.37649C23.3671 2.37649 23.6139 2.43749 23.8206 2.55269C24.7277 3.08139 25.1212 5.09439 24.8144 7.68339C24.7411 8.32049 24.621 8.99149 24.4743 9.67609C23.167 9.35069 21.7396 9.09999 20.2389 8.93729C19.3385 7.68339 18.4047 6.54479 17.4643 5.54849C19.6386 3.49479 21.6796 2.36969 23.0669 2.36969V0.85829C21.2327 0.85829 18.8316 2.18669 16.4038 4.49109C13.976 2.20029 11.5748 0.885389 9.7406 0.885389V2.39679C11.1213 2.39679 13.1689 3.51519 15.3433 5.55519C14.4095 6.55159 13.4757 7.68339 12.5886 8.93729C11.0812 9.09999 9.6539 9.35069 8.34661 9.68279C8.1932 9.00509 8.07981 8.34759 7.99978 7.71729C7.68629 5.12819 8.07314 3.11529 8.97357 2.57979C9.17367 2.45779 9.43379 2.40359 9.7406 2.40359V0.892189C9.18034 0.892189 8.67343 1.01419 8.23322 1.27169C6.359 2.36969 5.9388 5.79249 6.90592 10.0895C2.75728 11.3908 0.0559998 13.4716 0.0559998 15.6675C0.0559998 17.8703 2.77062 19.9578 6.9326 21.2523C5.97215 25.5629 6.39901 28.9924 8.27991 30.0904C8.71345 30.348 9.22036 30.47 9.78062 30.47C11.6148 30.47 14.016 29.1415 16.4438 26.8371C18.8716 29.128 21.2728 30.4429 23.107 30.4429C23.6672 30.4429 24.1741 30.3209 24.6143 30.0633C26.4886 28.9653 26.9088 25.5426 25.9416 21.2456C30.0769 19.951 32.7782 17.8635 32.7782 15.6675ZM24.0941 11.1468C23.8473 12.0211 23.5405 12.9226 23.1937 13.824C22.9202 13.2818 22.6334 12.7396 22.3199 12.1974C22.0131 11.6551 21.6863 11.1265 21.3595 10.6114C22.3066 10.7537 23.2203 10.9299 24.0941 11.1468ZM21.0393 18.365C20.5191 19.28 19.9855 20.1476 19.4319 20.9541C18.4381 21.0422 17.4309 21.0897 16.4171 21.0897C15.41 21.0897 14.4028 21.0422 13.4157 20.9609C12.8621 20.1544 12.3218 19.2936 11.8016 18.3854C11.2947 17.4975 10.8345 16.5961 10.4143 15.6879C10.8278 14.7797 11.2947 13.8714 11.7949 12.9836C12.3152 12.0686 12.8487 11.201 13.4023 10.3945C14.3962 10.3064 15.4033 10.2589 16.4171 10.2589C17.4243 10.2589 18.4314 10.3064 19.4185 10.3877C19.9721 11.1943 20.5124 12.055 21.0326 12.9632C21.5395 13.8511 21.9998 14.7525 22.42 15.6608C21.9998 16.569 21.5395 17.4772 21.0393 18.365ZM23.1937 17.4839C23.5538 18.3922 23.8606 19.3004 24.1141 20.1815C23.2404 20.3983 22.3199 20.5813 21.3661 20.7237C21.693 20.2018 22.0198 19.6664 22.3266 19.1174C22.6334 18.5752 22.9202 18.0262 23.1937 17.4839ZM16.4305 24.7157C15.8102 24.0651 15.1899 23.3398 14.5762 22.5469C15.1765 22.574 15.7901 22.5943 16.4104 22.5943C17.0374 22.5943 17.6577 22.5807 18.2647 22.5469C17.6644 23.3398 17.0441 24.0651 16.4305 24.7157ZM11.4681 20.7237C10.521 20.5813 9.60721 20.4051 8.73346 20.1882C8.98024 19.3139 9.28705 18.4125 9.63389 17.5111C9.90735 18.0533 10.1942 18.5955 10.5076 19.1377C10.8211 19.6799 11.1413 20.2086 11.4681 20.7237ZM16.3971 6.61929C17.0174 7.26999 17.6377 7.99519 18.2513 8.78819C17.651 8.76109 17.0374 8.74069 16.4171 8.74069C15.7901 8.74069 15.1699 8.75429 14.5629 8.78819C15.1632 7.99519 15.7835 7.26999 16.3971 6.61929ZM11.4614 10.6114C11.1346 11.1333 10.8078 11.6687 10.501 12.2177C10.1942 12.7599 9.90735 13.3021 9.63389 13.8443C9.27371 12.9361 8.9669 12.0279 8.71345 11.1468C9.5872 10.9367 10.5076 10.7537 11.4614 10.6114ZM5.42522 19.097C3.0641 18.0736 1.5367 16.7316 1.5367 15.6675C1.5367 14.6034 3.0641 13.2547 5.42522 12.238C5.99883 11.9873 6.62579 11.7636 7.27276 11.5535C7.65294 12.8819 8.15318 14.2646 8.77348 15.6811C8.15985 17.0908 7.66628 18.4667 7.29277 19.7884C6.63246 19.5782 6.0055 19.3478 5.42522 19.097ZM9.01359 28.7823C8.10649 28.2537 7.71297 26.2407 8.01979 23.6516C8.09315 23.0145 8.21321 22.3435 8.35995 21.659C9.66724 21.9843 11.0946 22.2351 12.5953 22.3977C13.4957 23.6516 14.4295 24.7903 15.3699 25.7866C13.1956 27.8402 11.1546 28.9653 9.76728 28.9653C9.46714 28.9585 9.21369 28.8975 9.01359 28.7823ZM24.8344 23.6177C25.1479 26.2068 24.7611 28.2198 23.8606 28.7552C23.6606 28.8772 23.4004 28.9314 23.0936 28.9314C21.713 28.9314 19.6653 27.8131 17.491 25.773C18.4247 24.7767 19.3585 23.6448 20.2456 22.391C21.753 22.2283 23.1803 21.9775 24.4876 21.6454C24.641 22.33 24.7611 22.9874 24.8344 23.6177ZM27.4023 19.097C26.8287 19.3478 26.2018 19.5715 25.5548 19.7816C25.1746 18.4532 24.6744 17.0705 24.0541 15.654C24.6677 14.2442 25.1613 12.8683 25.5348 11.5467C26.1951 11.7568 26.8221 11.9873 27.409 12.238C29.7701 13.2615 31.2975 14.6034 31.2975 15.6675C31.2908 16.7316 29.7635 18.0804 27.4023 19.097Z" fill="#61DAFB"/>
<path d="M16.4101 18.77C18.0935 18.77 19.4582 17.3833 19.4582 15.6726C19.4582 13.962 18.0935 12.5752 16.4101 12.5752C14.7267 12.5752 13.362 13.962 13.362 15.6726C13.362 17.3833 14.7267 18.77 16.4101 18.77Z" fill="#61DAFB"/>
</svg>
