<svg width="33" height="31" viewBox="0 0 33 31" fill="none" xmlns="http://www.w3.org/2000/svg">
<path d="M32.7222 15.6675C32.7222 13.4648 30.0076 11.3773 25.8456 10.0827C26.8061 5.77209 26.3792 2.34259 24.4983 1.24459C24.0648 0.987089 23.5579 0.865089 23.0043 0.865089V2.37649C23.3111 2.37649 23.5579 2.43749 23.7646 2.55269C24.6717 3.08139 25.0652 5.09439 24.7584 7.68339C24.6851 8.32049 24.565 8.99149 24.4183 9.67609C23.111 9.35069 21.6836 9.09999 20.1829 8.93729C19.2825 7.68339 18.3487 6.54479 17.4083 5.54849C19.5826 3.49479 21.6236 2.36969 23.0109 2.36969V0.85829C21.1767 0.85829 18.7756 2.18669 16.3478 4.49109C13.92 2.20029 11.5188 0.885389 9.6846 0.885389V2.39679C11.0653 2.39679 13.1129 3.51519 15.2873 5.55519C14.3535 6.55159 13.4197 7.68339 12.5326 8.93729C11.0252 9.09999 9.5979 9.35069 8.29061 9.68279C8.1372 9.00509 8.02381 8.34759 7.94378 7.71729C7.63029 5.12819 8.01714 3.11529 8.91757 2.57979C9.11767 2.45779 9.37779 2.40359 9.6846 2.40359V0.892189C9.12434 0.892189 8.61743 1.01419 8.17722 1.27169C6.303 2.36969 5.8828 5.79249 6.84992 10.0895C2.70128 11.3908 0 13.4716 0 15.6675C0 17.8703 2.71462 19.9578 6.8766 21.2523C5.91615 25.5629 6.34301 28.9924 8.22391 30.0904C8.65745 30.348 9.16436 30.47 9.72462 30.47C11.5588 30.47 13.96 29.1415 16.3878 26.8371C18.8156 29.128 21.2168 30.4429 23.051 30.4429C23.6112 30.4429 24.1181 30.3209 24.5583 30.0633C26.4326 28.9653 26.8528 25.5426 25.8856 21.2456C30.0209 19.951 32.7222 17.8635 32.7222 15.6675ZM24.0381 11.1468C23.7913 12.0211 23.4845 12.9226 23.1377 13.824C22.8642 13.2818 22.5774 12.7396 22.2639 12.1974C21.9571 11.6551 21.6303 11.1265 21.3035 10.6114C22.2506 10.7537 23.1643 10.9299 24.0381 11.1468ZM20.9833 18.365C20.4631 19.28 19.9295 20.1476 19.3759 20.9541C18.3821 21.0422 17.3749 21.0897 16.3611 21.0897C15.354 21.0897 14.3468 21.0422 13.3597 20.9609C12.8061 20.1544 12.2658 19.2936 11.7456 18.3854C11.2387 17.4975 10.7785 16.5961 10.3583 15.6879C10.7718 14.7797 11.2387 13.8714 11.7389 12.9836C12.2592 12.0686 12.7927 11.201 13.3463 10.3945C14.3402 10.3064 15.3473 10.2589 16.3611 10.2589C17.3683 10.2589 18.3754 10.3064 19.3625 10.3877C19.9161 11.1943 20.4564 12.055 20.9766 12.9632C21.4835 13.8511 21.9438 14.7525 22.364 15.6608C21.9438 16.569 21.4835 17.4772 20.9833 18.365ZM23.1377 17.4839C23.4978 18.3922 23.8046 19.3004 24.0581 20.1815C23.1844 20.3983 22.2639 20.5813 21.3101 20.7237C21.637 20.2018 21.9638 19.6664 22.2706 19.1174C22.5774 18.5752 22.8642 18.0262 23.1377 17.4839ZM16.3745 24.7157C15.7542 24.0651 15.1339 23.3398 14.5202 22.5469C15.1205 22.574 15.7341 22.5943 16.3544 22.5943C16.9814 22.5943 17.6017 22.5807 18.2087 22.5469C17.6084 23.3398 16.9881 24.0651 16.3745 24.7157ZM11.4121 20.7237C10.465 20.5813 9.55121 20.4051 8.67746 20.1882C8.92424 19.3139 9.23105 18.4125 9.57789 17.5111C9.85135 18.0533 10.1382 18.5955 10.4516 19.1377C10.7651 19.6799 11.0853 20.2086 11.4121 20.7237ZM16.3411 6.61929C16.9614 7.26999 17.5817 7.99519 18.1953 8.78819C17.595 8.76109 16.9814 8.74069 16.3611 8.74069C15.7341 8.74069 15.1139 8.75429 14.5069 8.78819C15.1072 7.99519 15.7275 7.26999 16.3411 6.61929ZM11.4054 10.6114C11.0786 11.1333 10.7518 11.6687 10.445 12.2177C10.1382 12.7599 9.85135 13.3021 9.57789 13.8443C9.21771 12.9361 8.9109 12.0279 8.65745 11.1468C9.5312 10.9367 10.4516 10.7537 11.4054 10.6114ZM5.36922 19.097C3.0081 18.0736 1.4807 16.7316 1.4807 15.6675C1.4807 14.6034 3.0081 13.2547 5.36922 12.238C5.94283 11.9873 6.56979 11.7636 7.21676 11.5535C7.59694 12.8819 8.09718 14.2646 8.71748 15.6811C8.10385 17.0908 7.61028 18.4667 7.23677 19.7884C6.57646 19.5782 5.9495 19.3478 5.36922 19.097ZM8.95759 28.7823C8.05049 28.2537 7.65697 26.2407 7.96379 23.6516C8.03715 23.0145 8.15721 22.3435 8.30395 21.659C9.61124 21.9843 11.0386 22.2351 12.5393 22.3977C13.4397 23.6516 14.3735 24.7903 15.3139 25.7866C13.1396 27.8402 11.0986 28.9653 9.71128 28.9653C9.41114 28.9585 9.15769 28.8975 8.95759 28.7823ZM24.7784 23.6177C25.0919 26.2068 24.7051 28.2198 23.8046 28.7552C23.6046 28.8772 23.3444 28.9314 23.0376 28.9314C21.657 28.9314 19.6093 27.8131 17.435 25.773C18.3687 24.7767 19.3025 23.6448 20.1896 22.391C21.697 22.2283 23.1243 21.9775 24.4316 21.6454C24.585 22.33 24.7051 22.9874 24.7784 23.6177ZM27.3463 19.097C26.7727 19.3478 26.1458 19.5715 25.4988 19.7816C25.1186 18.4532 24.6184 17.0705 23.9981 15.654C24.6117 14.2442 25.1053 12.8683 25.4788 11.5467C26.1391 11.7568 26.7661 11.9873 27.353 12.238C29.7141 13.2615 31.2415 14.6034 31.2415 15.6675C31.2348 16.7316 29.7075 18.0804 27.3463 19.097Z" fill="#619FFB"/>
<path d="M16.3541 18.77C18.0375 18.77 19.4022 17.3833 19.4022 15.6726C19.4022 13.962 18.0375 12.5752 16.3541 12.5752C14.6707 12.5752 13.306 13.962 13.306 15.6726C13.306 17.3833 14.6707 18.77 16.3541 18.77Z" fill="#619FFB"/>
</svg>
