<svg width="34" height="25" viewBox="0 0 34 25" fill="none" xmlns="http://www.w3.org/2000/svg">
<mask id="mask0_1_87" style="mask-type:alpha" maskUnits="userSpaceOnUse" x="0" y="0" width="34" height="25">
<path d="M0.666687 0.611179H33.3889V24.7223H0.666687V0.611179Z" fill="black"/>
</mask>
<g mask="url(#mask0_1_87)">
<path d="M28.8254 14.467C27.6814 14.4733 26.6908 14.7433 25.86 15.1452C25.5532 14.5487 25.2464 14.0275 25.1953 13.6382C25.1378 13.1862 25.0675 12.9098 25.1378 12.3699C25.2081 11.8298 25.5276 11.0638 25.5276 11.001C25.5212 10.9445 25.4572 10.6682 24.799 10.662C24.1408 10.6557 23.5719 10.7875 23.508 10.9571C23.4441 11.1266 23.3163 11.5159 23.2332 11.9178C23.1182 12.508 21.9167 14.5989 21.2328 15.6977C21.0091 15.2707 20.8174 14.894 20.779 14.5925C20.7215 14.1405 20.6512 13.8642 20.7215 13.3242C20.7918 12.7842 21.1114 12.0182 21.1114 11.9554C21.105 11.8989 21.0411 11.6226 20.3829 11.6164C19.7245 11.6101 19.1558 11.7419 19.0919 11.9115C19.028 12.081 18.9577 12.4829 18.8171 12.8722C18.6828 13.2614 17.085 16.7525 16.6696 17.6629C16.4587 18.1276 16.2734 18.498 16.1391 18.7492C16.0049 19.0003 16.1328 18.768 16.12 18.7931C16.0049 19.0066 15.941 19.1259 15.941 19.1259V19.1323C15.8516 19.2892 15.7557 19.4399 15.7109 19.4399C15.6789 19.4399 15.615 19.0192 15.7237 18.4416C15.9601 17.2297 16.5353 15.3398 16.529 15.2708C16.529 15.2394 16.6376 14.9065 16.1583 14.7371C15.6917 14.5675 15.5256 14.8501 15.4872 14.8501C15.4488 14.8501 15.4169 14.9505 15.4169 14.9505C15.4169 14.9505 15.9346 12.822 14.4263 12.822C13.4804 12.822 12.1766 13.833 11.5311 14.756C11.1221 14.9757 10.2529 15.4403 9.33261 15.9364C8.9811 16.1247 8.61681 16.3256 8.27169 16.5077L8.20145 16.4323C6.37361 14.5172 2.99274 13.161 3.13334 10.5866C3.18447 9.65105 3.5168 7.18335 9.62672 4.19465C14.6309 1.74585 18.6381 2.41765 19.3347 3.91205C20.3253 6.04685 17.1937 10.0152 11.9914 10.5866C10.0102 10.8064 8.96838 10.0529 8.70641 9.77035C8.43159 9.47515 8.39325 9.46265 8.29099 9.51915C8.12482 9.60705 8.22708 9.87075 8.29099 10.0278C8.44438 10.4234 9.08348 11.1266 10.17 11.4782C11.1222 11.7859 13.4486 11.9554 16.2606 10.888C19.4114 9.68865 21.872 6.36085 21.1498 3.57925C20.4148 0.747452 15.6343 -0.181849 11.1158 1.39425C8.42514 2.33605 5.51081 3.80535 3.41455 5.73295C0.922032 8.01845 0.525786 10.0152 0.691953 10.8441C1.2736 13.8014 5.42134 15.7291 7.08302 17.1543C6.99993 17.1982 6.92324 17.2422 6.85294 17.2799C6.0221 17.6817 2.85853 19.308 2.06603 21.0284C1.17128 22.9749 2.20664 24.3751 2.89687 24.5635C5.03149 25.1474 7.21723 24.0988 8.39957 22.3721C9.57547 20.6454 9.43493 18.4038 8.89168 17.3804L8.87245 17.3427L9.52434 16.966C9.94621 16.7211 10.3616 16.4951 10.7259 16.3003C10.5214 16.8466 10.3743 17.4933 10.2977 18.4352C10.2082 19.5403 10.6684 20.9719 11.2756 21.537C11.544 21.7818 11.8635 21.7881 12.0617 21.7881C12.7647 21.7881 13.0842 21.2167 13.4357 20.5323C13.8703 19.6972 14.2538 18.7303 14.2538 18.7303C14.2538 18.7303 13.7745 21.3486 15.0846 21.3486C15.564 21.3486 16.0433 20.7395 16.2606 20.4256V20.4319C16.2606 20.4319 16.2734 20.413 16.2989 20.3691C16.3257 20.3301 16.3513 20.2904 16.3756 20.2499V20.2373C16.5673 19.9108 16.9956 19.1636 17.6347 17.9267C18.459 16.3318 19.2516 14.3351 19.2516 14.3351C19.2516 14.3351 19.3283 14.8249 19.5648 15.6286C19.7053 16.1058 20.0121 16.6269 20.2485 17.1355C20.0568 17.3992 19.9418 17.55 19.9418 17.55L19.9482 17.5563C19.7948 17.7572 19.6222 17.9707 19.4433 18.1841C18.7914 18.9502 18.0117 19.823 17.9095 20.0742C17.788 20.3692 17.8136 20.589 18.0501 20.7649C18.2226 20.8904 18.5294 20.9155 18.8553 20.8904C19.4433 20.8527 19.8524 20.7083 20.0569 20.6204C20.3764 20.5074 20.7407 20.3378 21.0922 20.0867C21.7313 19.6221 22.1212 18.9628 22.0828 18.0837C22.0637 17.6003 21.9039 17.1231 21.7058 16.671C21.7633 16.5894 21.8209 16.5077 21.8783 16.4198C22.8881 14.9694 23.6678 13.3746 23.6678 13.3746C23.6678 13.3746 23.7445 13.8643 23.981 14.6681C24.1023 15.0762 24.3453 15.5221 24.5626 15.9615C23.6167 16.7213 23.0223 17.6003 22.8178 18.178C22.4407 19.2454 22.7347 19.7289 23.2907 19.8419C23.5399 19.8921 23.8979 19.7791 24.1663 19.6661C24.4986 19.5594 24.9012 19.3772 25.272 19.1073C25.9111 18.6426 26.5246 17.9959 26.4927 17.1231C26.4735 16.7213 26.3648 16.3257 26.2178 15.949C27.0231 15.6225 28.0648 15.4341 29.3878 15.5911C32.2318 15.9176 32.7943 17.6631 32.6857 18.3915C32.577 19.1199 31.9826 19.5217 31.7845 19.6473C31.5863 19.7666 31.5224 19.8106 31.5416 19.8984C31.5672 20.0303 31.6566 20.024 31.8292 19.999C32.0657 19.9612 33.3247 19.4025 33.3758 18.0588C33.4525 16.3319 31.7845 14.4482 28.8254 14.467ZM6.89128 21.7317C5.9518 22.7426 4.62885 23.1256 4.06644 22.7991C3.45928 22.4538 3.69569 20.9657 4.85254 19.892C5.55555 19.2389 6.46947 18.6362 7.07023 18.2657C7.20445 18.1841 7.40896 18.0649 7.65182 17.9204C7.69017 17.8953 7.71573 17.8827 7.71573 17.8827C7.76047 17.8576 7.8116 17.8262 7.86273 17.7948C8.29093 19.3269 7.8819 20.6705 6.89128 21.7317ZM13.7617 17.1418C13.4357 17.9267 12.7455 19.9422 12.3301 19.8292C11.9721 19.735 11.7549 18.2092 12.2597 16.7023C12.5154 15.9425 13.0586 15.0384 13.3781 14.6867C13.8959 14.1216 14.4582 13.9332 14.5989 14.1655C14.7651 14.467 13.9662 16.652 13.7617 17.1418ZM19.4305 19.8041C19.2899 19.8732 19.1621 19.9234 19.1046 19.8857C19.0599 19.8606 19.1621 19.7664 19.1621 19.7664C19.1621 19.7664 19.8715 19.0192 20.1527 18.6739C20.3124 18.473 20.5042 18.2407 20.7087 17.9769V18.0523C20.7088 18.9564 19.8268 19.5592 19.4305 19.8041ZM23.802 18.8245C23.6997 18.7492 23.7126 18.5169 24.0576 17.7885C24.1919 17.4997 24.4986 17.0162 25.029 16.5578C25.093 16.7462 25.1314 16.9282 25.1249 17.0978C25.1186 18.228 24.3005 18.6487 23.802 18.8245Z" fill="#CF649A"/>
</g>
</svg>
