<svg width="29" height="28" viewBox="0 0 29 28" fill="none" xmlns="http://www.w3.org/2000/svg">
<path d="M7.73526 27.3327L7.46633 27.3998C7.49021 27.4955 7.5632 27.5713 7.65796 27.5989C7.75273 27.6264 7.85498 27.6014 7.92643 27.5334L7.73526 27.3327ZM0.999989 0.332685L1.07598 0.0660858C0.980818 0.0389862 0.878409 0.0646858 0.807284 0.133486C0.736158 0.202286 0.707106 0.303785 0.731057 0.399786L0.999989 0.332685ZM28 8.03019L28.1912 8.23089C28.2632 8.16229 28.2929 8.06038 28.2691 7.96379C28.2453 7.86728 28.1716 7.79089 28.076 7.76359L28 8.03019ZM8.00419 27.2656L1.26892 0.265587L0.731057 0.399786L7.46633 27.3998L8.00419 27.2656ZM0.923997 0.599186L27.924 8.29669L28.076 7.76359L1.07598 0.0660858L0.923997 0.599186ZM27.8088 7.82949L7.54409 27.132L7.92643 27.5334L28.1912 8.23089L27.8088 7.82949Z" fill="white"/>
<path d="M14.4953 4.17868L14.7642 4.11158C14.7404 4.01588 14.6674 3.93998 14.5726 3.91248C14.4778 3.88498 14.3755 3.90988 14.3041 3.97798L14.4953 4.17868ZM17.8605 17.6827L17.7845 17.9492C17.8796 17.9763 17.982 17.9507 18.0532 17.8819C18.1243 17.8131 18.1534 17.7117 18.1295 17.6156L17.8605 17.6827ZM4.368 13.8327L4.17675 13.6321C4.1048 13.7006 4.07509 13.8025 4.09889 13.899C4.12269 13.9956 4.19635 14.0719 4.29195 14.0992L4.368 13.8327ZM14.2264 4.24568L17.5916 17.7497L18.1295 17.6156L14.7642 4.11158L14.2264 4.24568ZM17.9366 17.4161L4.44405 13.5661L4.29195 14.0992L17.7845 17.9492L17.9366 17.4161ZM4.55925 14.0333L14.6865 4.37928L14.3041 3.97798L4.17675 13.6321L4.55925 14.0333Z" fill="white"/>
<path d="M11.1474 15.6696L10.8785 15.7367C10.9023 15.8325 10.9754 15.9084 11.0702 15.9359C11.165 15.9634 11.2674 15.9383 11.3388 15.8701L11.1474 15.6696ZM9.47593 8.96132L9.55172 8.69472C9.45658 8.66772 9.35425 8.69342 9.28318 8.76212C9.21211 8.83092 9.18307 8.93242 9.20698 9.02832L9.47593 8.96132ZM16.1793 10.8668L16.3706 11.0673C16.4426 10.9986 16.4722 10.8967 16.4483 10.8002C16.4244 10.7037 16.3507 10.6273 16.255 10.6002L16.1793 10.8668ZM7.80384 2.26122L8.07279 2.19412C8.04892 2.09832 7.97588 2.02252 7.88104 1.99502C7.7862 1.96752 7.6839 1.99252 7.61247 2.06072L7.80384 2.26122ZM9.47531 8.96952L9.39952 9.23612C9.49466 9.26312 9.59699 9.23742 9.66806 9.16872C9.73913 9.09992 9.76817 8.99842 9.74426 8.90252L9.47531 8.96952ZM2.77199 7.06402L2.58062 6.86352C2.50869 6.93222 2.47905 7.03412 2.50293 7.13062C2.52682 7.22712 2.60057 7.30342 2.69621 7.33062L2.77199 7.06402ZM21.2099 6.08522L21.4788 6.01822C21.4549 5.92242 21.3819 5.84652 21.2871 5.81902C21.1922 5.79152 21.0899 5.81652 21.0185 5.88472L21.2099 6.08522ZM22.8813 12.7935L22.8055 13.0602C22.9007 13.0872 23.003 13.0615 23.0741 12.9927C23.1452 12.9239 23.1742 12.8225 23.1503 12.7265L22.8813 12.7935ZM16.178 10.8881L15.9866 10.6876C15.9147 10.7562 15.8851 10.8581 15.909 10.9547C15.9328 11.0512 16.0066 11.1275 16.1022 11.1547L16.178 10.8881ZM11.1482 15.6743L11.4171 15.6073C11.3933 15.5115 11.3202 15.4356 11.2254 15.4081C11.1305 15.3806 11.0282 15.4056 10.9568 15.4738L11.1482 15.6743ZM12.8197 22.3826L12.7439 22.6492C12.839 22.6763 12.9413 22.6506 13.0124 22.5818C13.0835 22.513 13.1125 22.4116 13.0886 22.3156L12.8197 22.3826ZM6.11632 20.4771L5.92495 20.2766C5.85302 20.3453 5.82338 20.4472 5.84727 20.5437C5.87115 20.6402 5.9449 20.7166 6.04054 20.7438L6.11632 20.4771ZM11.4164 15.6026L9.74488 8.89432L9.20698 9.02832L10.8785 15.7367L11.4164 15.6026ZM9.40015 9.22792L16.1035 11.1334L16.255 10.6002L9.55172 8.69472L9.40015 9.22792ZM15.9879 10.6663L10.956 15.4691L11.3388 15.8701L16.3706 11.0673L15.9879 10.6663ZM7.53489 2.32822L9.20636 9.03652L9.74426 8.90252L8.07279 2.19412L7.53489 2.32822ZM9.5511 8.70292L2.84778 6.79742L2.69621 7.33062L9.39952 9.23612L9.5511 8.70292ZM2.96337 7.26452L7.99522 2.46172L7.61247 2.06072L2.58062 6.86352L2.96337 7.26452ZM20.9409 6.15222L22.6124 12.8605L23.1503 12.7265L21.4788 6.01822L20.9409 6.15222ZM22.9571 12.5269L16.2538 10.6215L16.1022 11.1547L22.8055 13.0602L22.9571 12.5269ZM16.3694 11.0886L21.4012 6.28572L21.0185 5.88472L15.9866 10.6876L16.3694 11.0886ZM10.8792 15.7413L12.5507 22.4496L13.0886 22.3156L11.4171 15.6073L10.8792 15.7413ZM12.8954 22.116L6.19211 20.2105L6.04054 20.7438L12.7439 22.6492L12.8954 22.116ZM6.3077 20.6776L11.3396 15.8748L10.9568 15.4738L5.92495 20.2766L6.3077 20.6776Z" fill="white"/>
</svg>
