<svg width="100" height="100" viewBox="0 0 100 100" fill="none" xmlns="http://www.w3.org/2000/svg">
<rect width="100" height="100" rx="50" fill="#441B9F"/>
<path d="M69.9488 27.5783C69.2595 27.5783 68.3405 27.8072 67.8811 28.494L59.84 40.3976C59.3805 41.0843 59.3805 42.2289 60.0698 42.9157L66.0431 48.8675C66.0431 59.3976 57.5426 67.8675 46.9744 67.8675L41.001 61.9157C40.3118 61.2289 39.1631 61.2289 38.4739 61.6867L26.5272 69.6988C25.8379 70.1566 25.6082 70.8434 25.6082 71.759C26.2974 76.3373 30.2031 80 35.0277 80C58.6913 80 77.9898 60.7711 77.9898 37.1928C78.2195 32.1566 74.5436 28.2651 69.9488 27.5783ZM51.799 27.3494C52.2585 27.3494 52.718 27.3494 53.4072 27.3494C53.8667 27.3494 54.3262 26.8916 54.3262 26.4337V23.9157C54.3262 23.4578 53.8667 23 53.4072 23C37.3251 23.4578 24.4595 36.2771 24 52.3012C24 52.759 24.4595 53.2169 24.919 53.2169H27.4462C27.9056 53.2169 28.3651 52.759 28.3651 52.3012C28.3651 51.8434 28.3651 51.3855 28.3651 50.6988C29.2841 38.3374 39.3928 28.494 51.799 27.3494ZM54.0964 32.6145C54.0964 32.1566 53.6369 31.6988 53.1775 31.6988C41.92 32.1566 32.96 41.0843 32.5005 52.3012C32.5005 52.759 32.96 53.2169 33.4195 53.2169H35.9467C36.4062 53.2169 36.8656 52.759 36.8656 52.3012C36.8656 51.8434 36.8656 51.3855 37.0954 50.6988C38.2441 43.1446 44.2174 36.9639 51.799 36.0482C52.2585 36.0482 52.718 35.8193 53.4072 35.8193C53.8667 35.8193 54.3262 35.3614 54.3262 34.9036V32.6145H54.0964ZM53.1775 40.3976C46.7446 40.8554 41.6903 45.8916 41.2308 52.3012C41.2308 52.759 41.6903 53.2169 42.1498 53.2169H44.6769C45.1364 53.2169 45.5959 52.759 45.5959 52.3012C45.5959 51.8434 45.8257 51.1566 45.8257 50.6988C46.7446 47.9518 48.8123 45.6627 51.799 44.747C52.2585 44.5181 52.718 44.5181 53.4072 44.5181C53.8667 44.5181 54.3262 44.0602 54.3262 43.6024V41.3133C54.0964 40.8554 53.6369 40.3976 53.1775 40.3976Z" fill="#28F18A"/>
</svg>
